<svg xmlns="http://www.w3.org/2000/svg" xmlns:xlink="http://www.w3.org/1999/xlink" width="1920" height="100" viewBox="0 0 1920 100">
  <defs>
    <clipPath id="clip-path">
      <rect id="Rectangle_90" data-name="Rectangle 90" width="1920" height="100" fill="#e6f3f0"/>
    </clipPath>
  </defs>
  <g id="Group_327" data-name="Group 327" transform="translate(0 -2795)">
    <rect id="Rectangle_89" data-name="Rectangle 89" width="1920" height="100" transform="translate(0 2795)" fill="#e6f3f0"/>
    <g id="Mask_Group_8" data-name="Mask Group 8" transform="translate(0 2795)" clip-path="url(#clip-path)">
      <g id="Group_321" data-name="Group 321" transform="translate(1717.051 -61.572)">
        <g id="Group_320" data-name="Group 320" transform="translate(0 0)">
          <path id="Path_310" data-name="Path 310" d="M1138.034,597.968,976.988,486.131l161.046-111.837,10.339,7.18L997.666,486.131l150.707,104.658-10.339,7.18Z" transform="translate(-769.652 -374.293)" fill="#9dd4ca"/>
          <path id="Path_311" data-name="Path 311" d="M1084.858,597.968,923.812,486.131l161.046-111.837,10.339,7.18L944.49,486.131,1095.2,590.788l-10.339,7.18Z" transform="translate(-768.31 -374.293)" fill="#9dd4ca"/>
          <path id="Path_312" data-name="Path 312" d="M1031.682,597.968,870.637,486.131l161.045-111.837,10.339,7.18L891.315,486.131l150.706,104.658-10.339,7.18Z" transform="translate(-766.969 -374.293)" fill="#9dd4ca"/>
          <path id="Path_313" data-name="Path 313" d="M978.506,597.968,817.462,486.131,978.506,374.293l10.339,7.18L838.14,486.131,988.846,590.788l-10.339,7.18Z" transform="translate(-765.627 -374.293)" fill="#9dd4ca"/>
          <path id="Path_314" data-name="Path 314" d="M925.332,597.968,764.286,486.131,925.332,374.293l10.339,7.18L784.964,486.131,935.671,590.788l-10.339,7.18Z" transform="translate(-764.286 -374.293)" fill="#9dd4ca"/>
        </g>
      </g>
    </g>
  </g>
</svg>
