<svg xmlns="http://www.w3.org/2000/svg" xmlns:xlink="http://www.w3.org/1999/xlink" width="173.092" height="174.2" viewBox="0 0 173.092 174.2">
  <defs>
    <filter id="Path_178" x="0" y="0" width="173.092" height="174.2" filterUnits="userSpaceOnUse">
      <feOffset dy="3" input="SourceAlpha"/>
      <feGaussianBlur stdDeviation="3" result="blur"/>
      <feFlood flood-opacity="0.161"/>
      <feComposite operator="in" in2="blur"/>
      <feComposite in="SourceGraphic"/>
    </filter>
    <linearGradient id="linear-gradient" x1="1.293" y1="1.215" x2="0.483" y2="-0.226" gradientUnits="objectBoundingBox">
      <stop offset="0" stop-color="#9dd1c8"/>
      <stop offset="0.288" stop-color="#9acec7"/>
      <stop offset="0.528" stop-color="#8fc4c4"/>
      <stop offset="0.749" stop-color="#7eb5bf"/>
      <stop offset="0.938" stop-color="#69a1b8"/>
    </linearGradient>
  </defs>
  <g id="Group_282" data-name="Group 282" transform="translate(6.444 6)">
    <g transform="matrix(1, 0, 0, 1, -6.44, -6)" filter="url(#Path_178)">
      <path id="Path_178-2" data-name="Path 178" d="M358.948,79.1C358.948,36,324.2,1,281.4,1s-77.546,35-77.546,78.1v78.1H281.4C324.2,157.306,358.948,122.311,358.948,79.1Z" transform="translate(-194.86 5)" fill="#fff"/>
    </g>
    <g id="Group_173" data-name="Group 173" transform="translate(0 0)">
      <g id="Group_172" data-name="Group 172" transform="translate(0 0)">
        <g id="Group_172-2" data-name="Group 172" transform="translate(0 0)">
          <path id="Path_194" data-name="Path 194" d="M163.867,79.651c0-43.209-35.32-78.288-78.823-78.288S6.219,36.443,6.219,79.651v78.287H85.044A78.457,78.457,0,0,0,163.867,79.651Z" transform="translate(-6.219 -1.363)" fill="#fff"/>
        </g>
        <path id="Path_195" data-name="Path 195" d="M115.189,92.492H88.247a10.314,10.314,0,0,0-7.2,2.973L62.8,112v-5.017L78.517,93.049a13.635,13.635,0,0,1,9.73-4.088h26.942a7.063,7.063,0,1,1,0,14.122H104.337l2.058,1.58c2.9,2.137,7.484,3.159,10.852,3.159a21.62,21.62,0,0,0,2.619-.186l16.933-3.344a14.081,14.081,0,0,1,2.058-.186,10.591,10.591,0,0,1,7.11,2.694,4.494,4.494,0,0,1,1.4,4.089,4.712,4.712,0,0,1-2.62,3.438l-22.639,10.128a12.946,12.946,0,0,1-5.239,1.114,14.345,14.345,0,0,1-2.806-.278l-22.639-4.553a12.432,12.432,0,0,0-3.18-.371,14.375,14.375,0,0,0-8.7,3.065L62.895,133.467v-3.9l14.406-8.92a17.355,17.355,0,0,1,10.852-3.809,18.874,18.874,0,0,1,3.929.464l22.639,4.553a7.371,7.371,0,0,0,2.058.278,9.191,9.191,0,0,0,3.835-.836l22.639-10.128a1.072,1.072,0,0,0,.187-1.765,7.119,7.119,0,0,0-4.677-1.766,5.787,5.787,0,0,0-1.311.093l-16.933,3.344a18.631,18.631,0,0,1-3.274.279c-5.052,0-11.787-1.951-14.874-5.668l-1.029-1.3a3,3,0,0,1-.374-3.159,2.916,2.916,0,0,1,2.713-1.673h11.507a3.533,3.533,0,1,0,0-7.061Z" transform="translate(-52.475 8.08)" fill="#fff"/>
        <path id="Path_196" data-name="Path 196" d="M78.209,65.374l.467.278.469-.278a9.829,9.829,0,0,1,5.332-1.487,10.164,10.164,0,0,1,7.11,2.88,9.821,9.821,0,0,1,0,13.936L78.771,93.433l-.094-.093-.093.093L65.767,80.7a9.821,9.821,0,0,1,0-13.936,10,10,0,0,1,7.11-2.88A9.829,9.829,0,0,1,78.209,65.374Zm-9.823,3.9a6.033,6.033,0,0,0-1.871,4.367,5.878,5.878,0,0,0,1.871,4.367l10.2,10.128.093-.093.094.093L88.967,78.1a6.025,6.025,0,0,0,1.871-4.367,5.878,5.878,0,0,0-1.871-4.367,6.268,6.268,0,0,0-4.4-1.858,5.954,5.954,0,0,0-4.4,1.858l-1.4,1.394-1.4-1.394a6.271,6.271,0,0,0-4.4-1.858A7.069,7.069,0,0,0,68.386,69.275Z" transform="translate(0.406 5.377)" fill="#fff"/>
        <path id="Path_197" data-name="Path 197" d="M94.972,57.3a13.63,13.63,0,0,1-9.729,4.088H58.3a7.063,7.063,0,1,1,0-14.122H69.152l-2.058-1.58c-2.9-2.137-7.484-3.159-10.852-3.159a21.619,21.619,0,0,0-2.619.186L36.69,46.06a14.24,14.24,0,0,1-2.058.185,10.587,10.587,0,0,1-7.11-2.694,4.492,4.492,0,0,1-1.4-4.088,4.715,4.715,0,0,1,2.62-3.439L51.47,25.9a12.955,12.955,0,0,1,5.24-1.114,14.355,14.355,0,0,1,2.806.279l22.639,4.552a12.379,12.379,0,0,0,3.18.372,14.377,14.377,0,0,0,8.7-3.066L100.21,23.2l2.806,2.23-6.828,4.274a17.347,17.347,0,0,1-10.852,3.81,18.885,18.885,0,0,1-3.929-.465L58.767,28.5a7.328,7.328,0,0,0-2.057-.279,9.209,9.209,0,0,0-3.836.836L30.235,39.184a1.073,1.073,0,0,0-.187,1.766,7.124,7.124,0,0,0,4.678,1.765,5.782,5.782,0,0,0,1.309-.093l16.933-3.344A18.63,18.63,0,0,1,56.242,39c5.052,0,11.787,1.952,14.874,5.668l1.029,1.3a3,3,0,0,1,.374,3.158A2.916,2.916,0,0,1,69.807,50.8H58.3a3.624,3.624,0,1,0,0,7.247H85.243a10.307,10.307,0,0,0,7.2-2.973l20.861-19.048c.842,1.116,1.685,2.138,2.433,3.253Z" transform="translate(19.943 0.991)" fill="#fff"/>
        <path id="Path_198" data-name="Path 198" d="M151.236,78.483a67.815,67.815,0,0,0-135.63,0V146.3H83.421A67.728,67.728,0,0,0,151.236,78.483Z" transform="translate(-3.987 -0.36)" fill="url(#linear-gradient)"/>
        <path id="Path_199" data-name="Path 199" d="M48.669,40.263a1.267,1.267,0,0,1-1.861.116,1.327,1.327,0,0,1-.233-1.873l.116-.116,1.163-1.406a1.258,1.258,0,0,1,1.046-.467,1.325,1.325,0,0,1,1.28,1.4,1.068,1.068,0,0,1-.349.82Z" transform="translate(63.078 2.427)" fill="#fff"/>
        <path id="Path_200" data-name="Path 200" d="M48.152,45l-1.395-1.171a1.325,1.325,0,0,1-.233-1.873,1.1,1.1,0,0,1,1.163-.467,1.05,1.05,0,0,1,.813.351l1.4,1.171a1.325,1.325,0,0,1,.233,1.873,1.259,1.259,0,0,1-1.047.467C48.734,45.235,48.385,45.235,48.152,45Z" transform="translate(62.898 2.959)" fill="#fff"/>
        <path id="Path_201" data-name="Path 201" d="M49.676,51.207a1.2,1.2,0,0,1,1.28,1.171,1.52,1.52,0,0,1-1.28,1.522,1.319,1.319,0,0,1-1.395-1.288A1.506,1.506,0,0,1,49.676,51.207Z" transform="translate(60.096 4.01)" fill="#fff"/>
        <path id="Path_202" data-name="Path 202" d="M40.149,56.183l1.745-.117h.116a1.4,1.4,0,0,1,1.278,1.406,1.371,1.371,0,0,1-1.162,1.287l-1.628.117h-.116A1.2,1.2,0,0,1,39.1,57.706,1.175,1.175,0,0,1,40.149,56.183Z" transform="translate(77.997 4.534)" fill="#fff"/>
        <path id="Path_203" data-name="Path 203" d="M52.063,39.923l-1.28-1.171a1.313,1.313,0,0,1-.116-1.873,1.26,1.26,0,0,1,1.047-.469,1.05,1.05,0,0,1,.813.351l1.28,1.054a1.325,1.325,0,0,1,.233,1.873,1.257,1.257,0,0,1-1.047.469A.9.9,0,0,1,52.063,39.923Z" transform="translate(54.453 2.415)" fill="#fff"/>
        <path id="Path_204" data-name="Path 204" d="M58.076,33.023a1.2,1.2,0,0,1,1.278,1.171,1.518,1.518,0,0,1-1.278,1.522,1.319,1.319,0,0,1-1.4-1.287A1.42,1.42,0,0,1,58.076,33.023Z" transform="translate(42.393 2.05)" fill="#fff"/>
        <path id="Path_205" data-name="Path 205" d="M51.522,42.324l1.28-.82a1.247,1.247,0,0,1,.929-.234,1.3,1.3,0,0,1,1.163,1.4,1.042,1.042,0,0,1-.582.936l-1.278.82a.975.975,0,0,1-.814.235,1.383,1.383,0,0,1-1.046-.586,1.145,1.145,0,0,1,.348-1.756Z" transform="translate(53.248 2.939)" fill="#fff"/>
        <path id="Path_206" data-name="Path 206" d="M34.441,40.474a1.319,1.319,0,0,1-1.395-1.288,1.419,1.419,0,0,1,1.395-1.4,1.2,1.2,0,0,1,1.28,1.171A1.35,1.35,0,0,1,34.441,40.474Z" transform="translate(92.193 2.563)" fill="#fff"/>
        <path id="Path_207" data-name="Path 207" d="M70.531,59.784a9.863,9.863,0,0,1,2.906-7.026,10.124,10.124,0,0,1,12.441-1.4l.582.351.582-.351a9.77,9.77,0,0,1,5.348-1.522,9.9,9.9,0,0,1,7.092,2.927,10.069,10.069,0,0,1,2.907,7.026,9.861,9.861,0,0,1-2.907,7.025l-12.906,13-.116-.117-.116.117-12.906-13A9.662,9.662,0,0,1,70.531,59.784Zm5.347,4.8L86.343,75.122l.116-.116.116.116L97.156,64.467a6.586,6.586,0,0,0,1.976-4.683A6.392,6.392,0,0,0,97.156,55.1a6.7,6.7,0,0,0-4.651-1.991A6.491,6.491,0,0,0,87.855,55.1l-1.28,1.288L85.3,55.1a6.706,6.706,0,0,0-9.419,0A6.589,6.589,0,0,0,73.9,59.784,6.657,6.657,0,0,0,75.878,64.585Z" transform="translate(-15.985 3.862)" fill="#fff"/>
        <path id="Path_208" data-name="Path 208" d="M68.561,63.043l2.674,1.4a13.505,13.505,0,0,1-12.092,7.611H56.469V69.014h2.674A10.552,10.552,0,0,0,68.561,63.043Z" transform="translate(30.746 5.286)" fill="#fff"/>
        <path id="Path_209" data-name="Path 209" d="M37.2,60.185A1.2,1.2,0,0,1,38.6,59.132a1.34,1.34,0,0,1,1.163,1.522v.116l-.349,1.522a1.358,1.358,0,0,1-1.278,1.171H37.9a1.408,1.408,0,0,1-1.163-1.522v-.117Z" transform="translate(84.081 4.863)" fill="#fff"/>
        <path id="Path_210" data-name="Path 210" d="M40.758,47.556a1.319,1.319,0,0,1-1.395-1.287,1.506,1.506,0,0,1,1.395-1.406,1.2,1.2,0,0,1,1.28,1.171A1.436,1.436,0,0,1,40.758,47.556Z" transform="translate(78.894 3.326)" fill="#fff"/>
        <path id="Path_211" data-name="Path 211" d="M38.037,57.144h-.116a1.2,1.2,0,0,1-1.278-1.171v-.117l-.116-1.873a1.233,1.233,0,0,1,1.163-1.4h.348A1.5,1.5,0,0,1,39.2,53.866v1.756A1.408,1.408,0,0,1,38.037,57.144Z" transform="translate(84.874 4.158)" fill="#fff"/>
        <path id="Path_212" data-name="Path 212" d="M33.81,56.938l1.86-.235H35.9a1.3,1.3,0,0,1,1.163,1.4A1.249,1.249,0,0,1,35.9,59.279l-1.86.235h-.116a1.2,1.2,0,0,1-1.278-1.171A1.232,1.232,0,0,1,33.81,56.938Z" transform="translate(91.307 4.603)" fill="#fff"/>
        <path id="Path_213" data-name="Path 213" d="M109.954,33.578a1.4,1.4,0,0,1-1.511-1.171V32.29l-.116-1.873a1.232,1.232,0,0,1,1.162-1.4h.349A1.5,1.5,0,0,1,111,30.3l.116,1.873A1.389,1.389,0,0,1,109.954,33.578Z" transform="translate(-66.568 1.618)" fill="#fff"/>
        <path id="Path_214" data-name="Path 214" d="M115.019,50.387l-1.511-1.171a1.325,1.325,0,0,1-.233-1.873,1.1,1.1,0,0,1,1.163-.469,1.052,1.052,0,0,1,.813.351l1.4,1.171a1.326,1.326,0,0,1,.233,1.873,1.26,1.26,0,0,1-1.047.469A1.054,1.054,0,0,1,115.019,50.387Z" transform="translate(-77.798 3.54)" fill="#fff"/>
        <path id="Path_215" data-name="Path 215" d="M121.88,71.722l1.627-.117h.116a1.4,1.4,0,0,1,1.28,1.406A1.371,1.371,0,0,1,123.74,74.3l-1.627.117H122a1.2,1.2,0,0,1-1.28-1.171A1.221,1.221,0,0,1,121.88,71.722Z" transform="translate(-94.076 6.209)" fill="#fff"/>
        <path id="Path_216" data-name="Path 216" d="M129.336,70.49a1.319,1.319,0,0,1-1.395-1.288,1.5,1.5,0,0,1,1.395-1.4,1.2,1.2,0,0,1,1.279,1.171A1.52,1.52,0,0,1,129.336,70.49Z" transform="translate(-107.811 5.799)" fill="#fff"/>
        <path id="Path_217" data-name="Path 217" d="M118.855,75.724a1.2,1.2,0,0,1,1.395-1.054,1.34,1.34,0,0,1,1.163,1.522v.116l-.349,1.522A1.358,1.358,0,0,1,119.784,79h-.233a1.409,1.409,0,0,1-1.162-1.522v-.117Z" transform="translate(-88.026 6.538)" fill="#fff"/>
        <path id="Path_218" data-name="Path 218" d="M123.023,63.306a1.319,1.319,0,0,1-1.395-1.287,1.506,1.506,0,0,1,1.395-1.406,1.2,1.2,0,0,1,1.28,1.171A1.35,1.35,0,0,1,123.023,63.306Z" transform="translate(-94.521 5.024)" fill="#fff"/>
        <path id="Path_219" data-name="Path 219" d="M103.415,36.727a1.2,1.2,0,0,1,1.278,1.171,1.519,1.519,0,0,1-1.278,1.522,1.319,1.319,0,0,1-1.395-1.288A1.418,1.418,0,0,1,103.415,36.727Z" transform="translate(-53.174 2.449)" fill="#fff"/>
        <path id="Path_220" data-name="Path 220" d="M120.79,45.192a1.264,1.264,0,0,1-1.86.117l-.116-.117-1.28-1.054a1.313,1.313,0,0,1-.116-1.873,1.26,1.26,0,0,1,1.047-.469,1.054,1.054,0,0,1,.814.351l1.278,1.171A1.325,1.325,0,0,1,120.79,45.192Z" transform="translate(-86.243 2.996)" fill="#fff"/>
        <path id="Path_221" data-name="Path 221" d="M120.485,46.66a1.3,1.3,0,0,1,1.163,1.406,1.044,1.044,0,0,1-.582.936l-1.278.82a.978.978,0,0,1-.814.234,1.385,1.385,0,0,1-1.047-.585,1.327,1.327,0,0,1,.233-1.873.114.114,0,0,0,.116-.117l1.28-.586A1.392,1.392,0,0,1,120.485,46.66Z" transform="translate(-87.448 3.52)" fill="#fff"/>
        <path id="Path_222" data-name="Path 222" d="M112.125,35.415a1.2,1.2,0,0,1-1.278-1.171,1.409,1.409,0,0,1,1.162-1.522h.116l1.628-.117h.115a1.4,1.4,0,0,1,1.28,1.406,1.371,1.371,0,0,1-1.163,1.287l-1.627.117Z" transform="translate(-73.391 2.005)" fill="#fff"/>
        <path id="Path_223" data-name="Path 223" d="M109.1,36.724a1.2,1.2,0,0,1,1.4-1.055,1.34,1.34,0,0,1,1.162,1.522v.117l-.348,1.522a1.349,1.349,0,1,1-2.674-.351v-.117Z" transform="translate(-67.459 2.333)" fill="#fff"/>
        <path id="Path_224" data-name="Path 224" d="M105.6,33.367l1.86-.234h.233a1.3,1.3,0,0,1,1.163,1.4,1.25,1.25,0,0,1-1.163,1.171l-1.86.234h-.116a1.2,1.2,0,0,1-1.28-1.171A1.369,1.369,0,0,1,105.6,33.367Z" transform="translate(-60.011 2.062)" fill="#fff"/>
        <path id="Path_225" data-name="Path 225" d="M115.31,45.653a1.264,1.264,0,0,1-1.86.117,1.325,1.325,0,0,1-.233-1.873l.116-.117,1.162-1.4a1.26,1.26,0,0,1,1.047-.469,1.325,1.325,0,0,1,1.278,1.4,1.064,1.064,0,0,1-.349.82Z" transform="translate(-77.387 3.008)" fill="#fff"/>
        <path id="Path_226" data-name="Path 226" d="M117.6,57.874a1.52,1.52,0,0,1-1.278,1.522,1.32,1.32,0,0,1-1.4-1.288,1.506,1.506,0,0,1,1.4-1.4A1.2,1.2,0,0,1,117.6,57.874Z" transform="translate(-80.378 4.603)" fill="#fff"/>
        <path id="Path_227" data-name="Path 227" d="M119.5,72.578h-.116a1.2,1.2,0,0,1-1.28-1.171V71.29l-.116-1.873a1.233,1.233,0,0,1,1.163-1.4h.349a1.494,1.494,0,0,1,1.162,1.287l.116,1.873A1.616,1.616,0,0,1,119.5,72.578Z" transform="translate(-86.923 5.822)" fill="#fff"/>
        <path id="Path_228" data-name="Path 228" d="M115.357,72.355l1.86-.117h.233a1.3,1.3,0,0,1,1.163,1.406,1.249,1.249,0,0,1-1.163,1.17l-1.86.235h-.116a1.2,1.2,0,0,1-1.278-1.171A1.34,1.34,0,0,1,115.357,72.355Z" transform="translate(-80.578 6.277)" fill="#fff"/>
        <path id="Path_229" data-name="Path 229" d="M41.034,144.621,55.569,128.7a13.27,13.27,0,0,1,8.487-3.864l14.417-.82a8.145,8.145,0,0,0,7.557-8.079v-4.449A13.864,13.864,0,0,0,79.4,99.543,31.727,31.727,0,0,1,65.683,65.12a30.769,30.769,0,0,1,26.975-23.65,32.516,32.516,0,0,1,3.371-.235c13.72,0,24.3,9.484,27.672,24.705,0,.235.116.351.233.586,2.325,3.98,7.092,11.942,7.208,12.06.814,1.4,1.744,2.81,2.674,4.215.116.234.233.351.116.467-.116.352-1.163.469-1.744.586a5,5,0,0,0-.582.117c-.7.234-1.511.351-2.325.585a8.578,8.578,0,0,0-5.814,7.377l-.116.7a32.847,32.847,0,0,1-.814,4.449h-.232a3.6,3.6,0,0,1-.931-.234,2.45,2.45,0,0,1-.7-.469l-.7-.7c-.116-.117-.116-.235-.233-.351A2.047,2.047,0,0,0,118,94.391a2.174,2.174,0,0,0-.929.235,1.857,1.857,0,0,0-.931,1.171,1.741,1.741,0,0,0,.233,1.521,7.385,7.385,0,0,0,2.674,2.693,5.108,5.108,0,0,0,1.86.7,19.375,19.375,0,0,1-3.487,5.035,8.429,8.429,0,0,1-2.558,1.991,3.414,3.414,0,0,1-1.163.234c-4.418,0-13.37-6.44-17.905-10.537l-.349-.351-2.673,3.044.464.469c1.512,1.287,9.186,8.078,16.045,10.537v4.8a8.064,8.064,0,0,0,7.557,8.079l14.3.82a13.3,13.3,0,0,1,8.6,3.864l1.976,2.224,3.14-2.459-2.326-2.576a17.012,17.012,0,0,0-11.161-5.035l-14.3-.819a4.015,4.015,0,0,1-3.837-4.1v-3.863h.582a7.166,7.166,0,0,0,2.674-.469,11.977,11.977,0,0,0,3.836-2.928A26.6,26.6,0,0,0,127.306,93.1l.115-.7a4.516,4.516,0,0,1,3.14-3.98c.582-.235,1.28-.351,1.977-.586l.464-.116c2.093-.469,5.348-1.288,5.116-4.333a9.319,9.319,0,0,0-1.976-4.215,6.176,6.176,0,0,1-.7-1.171l-7.906-13.23C123.7,47.791,111.609,37.254,96.029,37.254c-1.278,0-2.558.117-3.836.234A35.007,35.007,0,0,0,66.148,53.88,35.827,35.827,0,0,0,77.31,102.939a9.98,9.98,0,0,1,4.767,8.664v4.449a4.012,4.012,0,0,1-3.837,4.1l-14.3.82A17.007,17.007,0,0,0,52.778,126L35.687,144.737h5.347Z" transform="translate(-19.859 2.506)" fill="#fff"/>
      </g>
    </g>
  </g>
</svg>
