<svg xmlns="http://www.w3.org/2000/svg" xmlns:xlink="http://www.w3.org/1999/xlink" width="173.092" height="174.2" viewBox="0 0 173.092 174.2">
  <defs>
    <filter id="Path_178" x="0" y="0" width="173.092" height="174.2" filterUnits="userSpaceOnUse">
      <feOffset dy="3" input="SourceAlpha"/>
      <feGaussianBlur stdDeviation="3" result="blur"/>
      <feFlood flood-opacity="0.161"/>
      <feComposite operator="in" in2="blur"/>
      <feComposite in="SourceGraphic"/>
    </filter>
    <linearGradient id="linear-gradient" x1="1.295" y1="1.235" x2="0.485" y2="-0.207" gradientUnits="objectBoundingBox">
      <stop offset="0" stop-color="#9dd1c8"/>
      <stop offset="0.288" stop-color="#9acec7"/>
      <stop offset="0.528" stop-color="#8fc4c4"/>
      <stop offset="0.749" stop-color="#7eb5bf"/>
      <stop offset="0.938" stop-color="#69a1b8"/>
    </linearGradient>
  </defs>
  <g id="Group_283" data-name="Group 283" transform="translate(9 6)">
    <g transform="matrix(1, 0, 0, 1, -9, -6)" filter="url(#Path_178)">
      <path id="Path_178-2" data-name="Path 178" d="M358.948,79.1C358.948,36,324.2,1,281.4,1s-77.546,35-77.546,78.1v78.1H281.4C324.2,157.306,358.948,122.311,358.948,79.1Z" transform="translate(-194.86 5)" fill="#fff"/>
    </g>
    <g id="Group_163" data-name="Group 163" transform="translate(0 0)">
      <g id="Group_162" data-name="Group 162" transform="translate(0 0)">
        <g id="Group_161" data-name="Group 161" transform="translate(0 0)">
          <path id="Path_164" data-name="Path 164" d="M161.716,80.1a78.1,78.1,0,0,0-156.2,0v78.1h78.1A78,78,0,0,0,161.716,80.1Z" transform="translate(-5.516 -1.996)" fill="#fff"/>
          <path id="Path_165" data-name="Path 165" d="M149.949,78.8a67.539,67.539,0,0,0-135.078,0v67.539H82.409A67.453,67.453,0,0,0,149.949,78.8Z" transform="translate(-4.112 -0.997)" fill="url(#linear-gradient)"/>
        </g>
        <path id="Path_166" data-name="Path 166" d="M52.746,126.752a17.308,17.308,0,0,1,11.071-4.983l14.579-.83a4.539,4.539,0,0,0,4.244-4.521V111.99a10.559,10.559,0,0,0-4.983-9.042A35.6,35.6,0,0,1,92.7,37.439a27.183,27.183,0,0,1,3.875-.185c15.685,0,27.773,10.519,31.648,27.588l10.242,17.069a3.229,3.229,0,0,1,.553,2.4,3.445,3.445,0,0,1-1.292,2.121,2.277,2.277,0,0,1-.646.369,19.424,19.424,0,0,1-3.505,1.016l-1.939.553a5.1,5.1,0,0,0-3.413,4.337l-.092.738a26.139,26.139,0,0,1-7.012,15.5,14.118,14.118,0,0,1-3.783,2.86,8,8,0,0,1-2.583.462h-1.015V116.6a4.537,4.537,0,0,0,4.244,4.521l14.578.831a17.309,17.309,0,0,1,11.072,4.982l1.569,1.385c-.923.738-1.846,1.476-2.768,2.121l-.461-.461-.646-.738a13.576,13.576,0,0,0-8.95-3.968l-14.579-.83a7.873,7.873,0,0,1-7.381-7.843v-5.075l-.184-.092c-7.1-2.583-15.408-9.873-16.331-10.611l-.093-.092,2.214-2.491.093.092c4.89,4.337,13.84,10.8,18.453,10.8a3.08,3.08,0,0,0,1.385-.277,10.077,10.077,0,0,0,2.767-2.123,22.651,22.651,0,0,0,6.09-13.563l.092-.738a8.238,8.238,0,0,1,5.721-7.1,16.747,16.747,0,0,1,2.308-.646c.83-.185,1.753-.462,2.582-.739l.277-.092L125.359,66.5c-.092-.185-.185-.277-.185-.461-3.413-15.593-14.393-25.281-28.6-25.281-1.107,0-2.306.092-3.414.184A31.626,31.626,0,0,0,65.386,65.119,32.244,32.244,0,0,0,79.5,100.364a14.011,14.011,0,0,1,6.55,11.809V116.6a7.873,7.873,0,0,1-7.381,7.843l-14.578.83a13.674,13.674,0,0,0-8.95,4.06L42.135,143.544H37.613Z" transform="translate(-24.553 1.805)" fill="#fff"/>
        <path id="Path_167" data-name="Path 167" d="M118.9,58.164h3.322v3.321H118.9Z" transform="translate(-91.633 4.059)" fill="#fff"/>
        <path id="Path_168" data-name="Path 168" d="M118.9,77.652h3.322v3.322H118.9Z" transform="translate(-91.633 6.16)" fill="#fff"/>
        <path id="Path_169" data-name="Path 169" d="M111.988,42.84h3.322v3.321h-3.322Z" transform="translate(-77.06 2.407)" fill="#fff"/>
        <path id="Path_170" data-name="Path 170" d="M38.113,37.254h3.322v3.321H38.113Z" transform="translate(78.654 1.805)" fill="#fff"/>
        <path id="Path_171" data-name="Path 171" d="M57.6,38.586h3.321v3.321H57.6Z" transform="translate(37.576 1.948)" fill="#fff"/>
        <path id="Path_172" data-name="Path 172" d="M46.527,48.414h3.322v3.321H46.527Z" transform="translate(60.919 3.008)" fill="#fff"/>
        <path id="Path_173" data-name="Path 173" d="M109,80.493l-4.429-6a1.6,1.6,0,0,0-1.015-.554.691.691,0,0,0-.461.092l-6.643,2.676-2.4-4.891L91.75,72.928l2.952,5.9a1.2,1.2,0,0,0,1.108.738.692.692,0,0,0,.461-.092L103.1,76.8l3.875,5.167Z" transform="translate(-48.334 5.531)" fill="#fff"/>
        <path id="Path_174" data-name="Path 174" d="M69.9,53.421a1.273,1.273,0,0,0-.461-1.477l-4.429-2.952-1.477,2.123,3.6,2.4-1.107,3.414,2.4.83Z" transform="translate(21.962 3.07)" fill="#fff"/>
        <path id="Path_175" data-name="Path 175" d="M88.65,78.178a.833.833,0,0,0,.461-.092l12.548-5.352c.369-.092.554-.369.738-.738l8.3-17.07v-.092a1.183,1.183,0,0,0-.83-1.476l-7.1-2.031.369-.646a.321.321,0,0,1,.092-.184l1.477-4.521a1.326,1.326,0,0,0-.277-1.292l-1.477-1.477a1.127,1.127,0,0,0-.83-.369h-7.2v2.491h6.735l.554.553L101.105,49.3l-1.2,1.107-10.8-3.044c-.092,0-.184-.092-.369-.092h-.185L78.316,48.745l.37,2.491,9.78-1.384L97.6,52.436l-.83.738-.277.092H85.421a1.787,1.787,0,0,0-.831.462,1.072,1.072,0,0,0-.185.923L85.882,63.6a1.387,1.387,0,0,0,.277.647,1.188,1.188,0,0,0,.923.369,1.288,1.288,0,0,0,.83-.277l9.412-8.4.83.646-4.429,8.857-8.58,2.306-7.381-13.84a1.3,1.3,0,0,0-.277-.369,1.052,1.052,0,0,0-.738-.277,1.134,1.134,0,0,0-.923.462l-6,7.473a1.25,1.25,0,0,0,0,1.569l7.473,8.95a1.281,1.281,0,0,0,.923.461H78.5L83.852,70.7l3.6,6.827A1.577,1.577,0,0,0,88.65,78.178Zm19.284-22.79-7.75,15.223L89.2,75.409l-2.86-5.351,8.581-2.308a1.053,1.053,0,0,0,.738-.646l6-11.9a.808.808,0,0,0,.092-.646l-.092-.83ZM82.745,68.49,78.686,69.6l-6.275-7.565,4.152-5.167ZM88,61.109l-.923-5.26h6.735Z" transform="translate(-25.487 2.407)" fill="#fff"/>
        <path id="Path_176" data-name="Path 176" d="M60.462,73.818A13.975,13.975,0,0,0,72.918,66.16l.092-.185-2.952-1.569-.092.185a10.605,10.605,0,0,1-9.5,5.9H57.6v3.322Z" transform="translate(25.489 4.732)" fill="#fff"/>
      </g>
    </g>
  </g>
</svg>
