<svg xmlns="http://www.w3.org/2000/svg" xmlns:xlink="http://www.w3.org/1999/xlink" width="173.092" height="174.2" viewBox="0 0 173.092 174.2">
  <defs>
    <filter id="Path_163" x="0" y="0" width="173.092" height="174.2" filterUnits="userSpaceOnUse">
      <feOffset dy="3" input="SourceAlpha"/>
      <feGaussianBlur stdDeviation="3" result="blur"/>
      <feFlood flood-opacity="0.161"/>
      <feComposite operator="in" in2="blur"/>
      <feComposite in="SourceGraphic"/>
    </filter>
    <linearGradient id="linear-gradient" x1="1.293" y1="1.219" x2="0.483" y2="-0.222" gradientUnits="objectBoundingBox">
      <stop offset="0" stop-color="#9dd1c8"/>
      <stop offset="0.288" stop-color="#9acec7"/>
      <stop offset="0.528" stop-color="#8fc4c4"/>
      <stop offset="0.749" stop-color="#7eb5bf"/>
      <stop offset="0.938" stop-color="#69a1b8"/>
    </linearGradient>
  </defs>
  <g id="Group_279" data-name="Group 279" transform="translate(8.588 6)">
    <g transform="matrix(1, 0, 0, 1, -8.59, -6)" filter="url(#Path_163)">
      <path id="Path_163-2" data-name="Path 163" d="M358.948,79.1C358.948,36,324.2,1,281.4,1s-77.546,35-77.546,78.1v78.1H281.4C324.2,157.306,358.948,122.311,358.948,79.1Z" transform="translate(-194.86 5)" fill="#fff"/>
    </g>
    <g id="Group_170" data-name="Group 170" transform="translate(0 0)">
      <g id="Group_171" data-name="Group 171" transform="translate(0 0)">
        <g id="Group_170-2" data-name="Group 170" transform="translate(0 0)">
          <path id="Path_180" data-name="Path 180" d="M161.738,79.916c0-43.208-34.84-78.287-77.752-78.287S6.234,36.709,6.234,79.916V158.2H83.986C126.9,158.311,161.738,123.231,161.738,79.916Z" transform="translate(-6.234 -1.629)" fill="#fff"/>
        </g>
        <path id="Path_181" data-name="Path 181" d="M151.251,78.749a67.815,67.815,0,0,0-135.63,0v67.815H83.436A67.729,67.729,0,0,0,151.251,78.749Z" transform="translate(-6.146 -0.626)" fill="url(#linear-gradient)"/>
        <path id="Path_182" data-name="Path 182" d="M81.672,51.911a1.037,1.037,0,0,1-1.1-1.1V40.589H76.958V50.921a1.1,1.1,0,1,1-2.192,0V39.49a1.037,1.037,0,0,1,1.1-1.1h5.809a1.036,1.036,0,0,1,1.1,1.1V50.811A1.1,1.1,0,0,1,81.672,51.911Z" transform="translate(-3.183 2.334)" fill="#fff"/>
        <path id="Path_183" data-name="Path 183" d="M71.483,52.6a1.037,1.037,0,0,1-1.1-1.1V45.461H66.77V49.2a1.1,1.1,0,1,1-2.192,0V44.252a1.037,1.037,0,0,1,1.1-1.1h5.809a1.038,1.038,0,0,1,1.1,1.1V51.4A1.2,1.2,0,0,1,71.483,52.6Z" transform="translate(18.291 2.847)" fill="#fff"/>
        <path id="Path_184" data-name="Path 184" d="M71.483,56.936a1.037,1.037,0,0,1,1.1,1.1v8.244a1.037,1.037,0,0,1-1.1,1.1H65.674a1.037,1.037,0,0,1-1.1-1.1V56.056a1.1,1.1,0,1,1,2.192,0v9.123h3.617V58.034A1.037,1.037,0,0,1,71.483,56.936Z" transform="translate(18.291 4.12)" fill="#fff"/>
        <path id="Path_185" data-name="Path 185" d="M56.708,81.889H54.187V79.032h2.521a9.832,9.832,0,0,0,8.879-5.605v-.111l2.521,1.319A12.415,12.415,0,0,1,56.708,81.889Z" transform="translate(34.273 6.099)" fill="#fff"/>
        <path id="Path_186" data-name="Path 186" d="M92.264,46.914a1.037,1.037,0,0,1-1.1-1.1V34.933H87.55v11.43a1.1,1.1,0,1,1-2.191,0V33.834a1.037,1.037,0,0,1,1.1-1.1h5.809a1.038,1.038,0,0,1,1.1,1.1v11.98A1.182,1.182,0,0,1,92.264,46.914Z" transform="translate(-25.511 1.724)" fill="#fff"/>
        <path id="Path_187" data-name="Path 187" d="M62.237,45.834l6.029.659a1.289,1.289,0,0,1,.986,1.21,1.167,1.167,0,0,1-1.1.989h-.11l-2.741-.33,3.946,3.188L75.5,46.823a.994.994,0,0,1,1.315,0l10.413,8.133,7.125-4.176a.821.821,0,0,1,.986,0l11.071,5.275a1.093,1.093,0,0,1,.548,1.429,1.054,1.054,0,0,1-.987.66.654.654,0,0,1-.439-.111L95.01,52.978l-7.234,4.287a.981.981,0,0,1-1.205-.11l-10.3-8.024L70.02,53.858a1,1,0,0,1-1.316,0L63.772,49.9l.329,2.858a1.09,1.09,0,0,1-.987,1.209H63a1.165,1.165,0,0,1-1.1-.989l-.768-5.934a1.249,1.249,0,0,1,.329-.88A.566.566,0,0,1,62.237,45.834Z" transform="translate(-12.364 3.132)" fill="#fff"/>
        <path id="Path_188" data-name="Path 188" d="M86.455,52.977a1.036,1.036,0,0,1,1.1,1.1V65.287h3.618v-11.1a1.1,1.1,0,1,1,2.192,0v12.2a1.038,1.038,0,0,1-1.1,1.1H86.455a1.037,1.037,0,0,1-1.1-1.1V54.076A1.036,1.036,0,0,1,86.455,52.977Z" transform="translate(-25.511 3.906)" fill="#fff"/>
        <path id="Path_189" data-name="Path 189" d="M85.636,78.882a6.83,6.83,0,0,1,5.043,4.4l1.315,3.847a1.143,1.143,0,0,1-.658,1.428c-.11,0-.219.111-.329.111H90.9a.931.931,0,0,1-.876-.77l-1.315-3.957a4.874,4.874,0,0,0-3.4-2.968c-1.754-.329-3.507.989-4.275,2.418a4.526,4.526,0,0,0-.11,3.627c0,.111,2.083,6.156,2.3,6.815a3.234,3.234,0,0,0,1.1,1.319,3.625,3.625,0,0,0,3.507.439l1.863-.769a.989.989,0,0,1,.548-.11.833.833,0,0,1,.876.659,1.093,1.093,0,0,1-.547,1.429l-1.973.769a4.894,4.894,0,0,1-2.192.44,5.466,5.466,0,0,1-3.4-1.1A5.618,5.618,0,0,1,81.141,94.6V94.49c-1.644-4.836-2.083-6.265-2.3-6.814a6.657,6.657,0,0,1,.219-5.386C80.265,80.311,82.895,78.333,85.636,78.882Z" transform="translate(-16.471 6.689)" fill="#fff"/>
        <path id="Path_190" data-name="Path 190" d="M64.192,91.236a.4.4,0,0,1-.329.111,2.706,2.706,0,0,1-3.4-1.759L59.26,85.961a2.7,2.7,0,1,1,5.151-1.648l1.205,3.627a1.877,1.877,0,0,1,0,1.539l1.974.88,10.3,4.836h6.248A2.122,2.122,0,0,1,86,94.094h2.083a2.2,2.2,0,0,1,0,4.4H86a2.261,2.261,0,0,1-1.863-1.1H77.456L67.372,92.665Z" transform="translate(6.618 7.081)" fill="#fff"/>
        <path id="Path_191" data-name="Path 191" d="M81.672,55.953a1.036,1.036,0,0,1,1.1,1.1v9.013a1.037,1.037,0,0,1-1.1,1.1H75.863a1.038,1.038,0,0,1-1.1-1.1V58.811a1.1,1.1,0,1,1,2.192,0v6.155h3.618V57.052A1.1,1.1,0,0,1,81.672,55.953Z" transform="translate(-3.183 4.227)" fill="#fff"/>
        <path id="Path_192" data-name="Path 192" d="M73.537,130.609l-.547-.659c-1.755-1.869-4.385-4.727-8-5.936-2.85-.989-7.345-.989-11.181-.989a40.43,40.43,0,0,1-5.59-.22c-2.631-.439-3.07-2.088-3.179-2.528-.657-3.846-.328-4.4.329-5.056a4.782,4.782,0,0,1,3.179-.878c1.1,0,2.3.11,3.4.219l.768.11a24.976,24.976,0,0,0,2.959.22h.768c7.673,0,8.221-6.375,8.55-10.552v-.33l-.329-.11a38.95,38.95,0,0,1-5.7-2.2h.219c1.645.111,3.618.111,5.262.111h.767l.11-.33.329-1.648c.329-1.21,2.631-2.418,4.056-3.188l.658-.329.11-.111c1.205-.769,3.069-2.088,2.959-4.726-.11-1.429-1.205-2.747-2.3-3.957l-.439-.549c-1.863-2.088-5.372-5.826-5.372-9.563,0-1.1.11-2.528.219-3.847,0-.329.11-.659.11-.989,0-.549.11-1.1.11-1.758V68.837c0-.44-1.205-12.091-8.988-18.8a1.949,1.949,0,0,0-1.1-.439,2.016,2.016,0,0,0-1.315.549,1.653,1.653,0,0,0-.439,1.209,1.764,1.764,0,0,0,.548,1.209,22.563,22.563,0,0,1,2.63,2.858,29.025,29.025,0,0,1,4.165,8.9,25.857,25.857,0,0,1,.987,4.836v1.65a6.282,6.282,0,0,1-.11,1.429c0,.329-.11.659-.11.989v.11c-.11,1.429-.219,2.968-.219,4.176,0,5.056,4.056,9.453,6.248,11.762l.439.549a14.4,14.4,0,0,1,1.425,1.758c0,.77-.219.989-1.425,1.869l-.219.11c-2.083,1.1-5.152,2.858-5.809,5.166v.111H55.122a.826.826,0,0,0-.767.44,2.223,2.223,0,0,0,0,1.868,3.887,3.887,0,0,0,1.425,1.869,14.658,14.658,0,0,0,5.7,3.077c-.438,3.408-1.425,5.166-5.042,5.166H55.78a25.069,25.069,0,0,1-2.741-.219c-1.534-.11-3.069-.33-4.493-.33-2.741,0-4.6.549-5.919,1.759-1.535,1.429-1.974,3.517-1.535,7.254a7.128,7.128,0,0,0,6.358,6.375h.11c.987.11,2.3.11,3.836.11,4.494.11,10.523.33,12.606,1.21,2.192.878,4.823,3.406,6.248,4.836l.219.33Z" transform="translate(43.532 3.543)" fill="#fff"/>
        <path id="Path_193" data-name="Path 193" d="M99.781,142.982l11.948-12.97a12.546,12.546,0,0,1,8-3.627l4.823-.659v-.11A13.806,13.806,0,0,0,135.4,114.4a29.54,29.54,0,0,0,.548-4.946c.219-3.187-.768-7.913-2.959-10.771-7.674-10-10.194-17.807-8.879-27.149.11-.549.219-1.21.329-1.759v-.11a27.845,27.845,0,0,1,1.754-5.386,10.024,10.024,0,0,1,1.425-2.417,1.932,1.932,0,0,1,.439-.551,41.108,41.108,0,0,1,2.85-2.968,2.017,2.017,0,0,0,.767-1.1,1.894,1.894,0,0,0-.219-1.318,1.87,1.87,0,0,0-1.425-.77,1.756,1.756,0,0,0-.986.33,35.2,35.2,0,0,0-3.508,3.517c-3.069,3.517-4.275,9.232-4.385,9.893v.219c-.11.549-.218,1.209-.328,1.869-1.535,10.112,1.315,18.9,9.426,29.567,1.644,2.2,2.412,6.045,2.3,8.573a14.923,14.923,0,0,1-.219,2.2,12.462,12.462,0,0,1-8.66,10.442l-4.275.549a15.575,15.575,0,0,0-10.413,4.726L94.629,142.763h5.152Z" transform="translate(-78.403 4.142)" fill="#fff"/>
      </g>
    </g>
  </g>
</svg>
