<svg xmlns="http://www.w3.org/2000/svg" xmlns:xlink="http://www.w3.org/1999/xlink" width="173.092" height="174.2" viewBox="0 0 173.092 174.2">
  <defs>
    <filter id="Path_163" x="0" y="0" width="173.092" height="174.2" filterUnits="userSpaceOnUse">
      <feOffset dy="3" input="SourceAlpha"/>
      <feGaussianBlur stdDeviation="3" result="blur"/>
      <feFlood flood-opacity="0.161"/>
      <feComposite operator="in" in2="blur"/>
      <feComposite in="SourceGraphic"/>
    </filter>
    <linearGradient id="linear-gradient" x1="-0.293" y1="1.234" x2="0.517" y2="-0.207" gradientUnits="objectBoundingBox">
      <stop offset="0" stop-color="#9dd1c8"/>
      <stop offset="0.288" stop-color="#9acec7"/>
      <stop offset="0.528" stop-color="#8fc4c4"/>
      <stop offset="0.749" stop-color="#7eb5bf"/>
      <stop offset="0.938" stop-color="#69a1b8"/>
    </linearGradient>
  </defs>
  <g id="Group_169" data-name="Group 169" transform="translate(7.892 6)">
    <g transform="matrix(1, 0, 0, 1, -7.89, -6)" filter="url(#Path_163)">
      <path id="Path_163-2" data-name="Path 163" d="M203.856,79.1C203.856,36,238.6,1,281.4,1s77.546,35,77.546,78.1v78.1H281.4C238.6,157.306,203.856,122.311,203.856,79.1Z" transform="translate(-194.86 5)" fill="#fff"/>
    </g>
    <g id="Group_164" data-name="Group 164" transform="translate(0)">
      <g id="Group_157" data-name="Group 157" transform="translate(0 0)">
        <g id="Group_156" data-name="Group 156" transform="translate(0 0)">
          <path id="Path_152" data-name="Path 152" d="M231.528,79.486a78.287,78.287,0,1,1,156.574,0v78.287H309.815A78.188,78.188,0,0,1,231.528,79.486Z" transform="translate(-231.528 -1.198)" fill="#fff"/>
        </g>
        <path id="Path_153" data-name="Path 153" d="M241.133,78.318a67.815,67.815,0,1,1,135.63,0v67.815H308.948A67.729,67.729,0,0,1,241.133,78.318Z" transform="translate(-230.493 -0.195)" fill="url(#linear-gradient)"/>
        <path id="Path_154" data-name="Path 154" d="M310.064,79.943a6.859,6.859,0,0,0-4.993,4.178,4.692,4.692,0,0,0-.333,1.1c-.111.219-.111.44-.332,1.1a.984.984,0,0,0,.666,1.319c.111,0,.222.11.332.11a1.065,1.065,0,0,0,1-.769,4.685,4.685,0,0,0,.332-1.1c.111-.219.111-.44.333-1.1a4.41,4.41,0,0,1,3.328-2.858,4.2,4.2,0,0,1,4.216,5.826c-.222.549-.777,2.088-2.219,6.6a3.228,3.228,0,0,1-1.11,1.318,3.606,3.606,0,0,1-3.328.44l-1.887-.769a1.1,1.1,0,0,0-1.442.549,1.087,1.087,0,0,0,.555,1.429l1.887.769a4.842,4.842,0,0,0,2.108.44,5.27,5.27,0,0,0,3.328-1.1,4.926,4.926,0,0,0,1.776-2.2v-.11s2.219-6.485,2.219-6.595a6.079,6.079,0,0,0-.223-5.167A5.876,5.876,0,0,0,310.064,79.943Z" transform="translate(-223.679 7.28)" fill="#fff"/>
        <path id="Path_155" data-name="Path 155" d="M282.27,57.819a1,1,0,0,0,.555-1.429,7.738,7.738,0,0,0-5.437-4.508,8.527,8.527,0,0,0-7.433,1.319A8.127,8.127,0,0,0,268.4,64.524a7.154,7.154,0,0,0,4.438,2.639c.332,0,.666.11,1,.11a6.456,6.456,0,0,0,3.995-1.319,5.567,5.567,0,0,0,1.109-7.8,4.784,4.784,0,0,0-6.657-.88,3.672,3.672,0,0,0-1.553,2.639,4.039,4.039,0,0,0,.777,2.968,3.406,3.406,0,0,0,4.771.659A1.175,1.175,0,0,0,276.5,62a1.8,1.8,0,0,0-.777-.44.939.939,0,0,0-.777.22,1.228,1.228,0,0,1-1.665-.22,1.435,1.435,0,0,1-.332-1.318,1.867,1.867,0,0,1,.666-1.1,2.578,2.578,0,0,1,3.44.44,3.211,3.211,0,0,1-.666,4.617,4.46,4.46,0,0,1-3.329.769,4.273,4.273,0,0,1-3-1.758,5.912,5.912,0,0,1,1.221-8.244,6.368,6.368,0,0,1,5.436-.989,5.442,5.442,0,0,1,3.884,3.187A1.548,1.548,0,0,0,282.27,57.819Z" transform="translate(-227.728 4.229)" fill="#fff"/>
        <path id="Path_156" data-name="Path 156" d="M281.9,74.573l-2.442,1.319a12.608,12.608,0,0,0,11.206,6.925h2.44V80.069h-2.44A10.188,10.188,0,0,1,281.9,74.573Z" transform="translate(-226.361 6.712)" fill="#fff"/>
        <path id="Path_157" data-name="Path 157" d="M304.085,44.409c-1.664,0-3,.88-3,1.979,0,.989,1.221,1.648,3,1.648s3-.659,3-1.648C307.081,45.289,305.75,44.409,304.085,44.409Z" transform="translate(-224.029 3.46)" fill="#fff"/>
        <path id="Path_158" data-name="Path 158" d="M283.192,52.863h.222a11.919,11.919,0,0,0,5.769-1.539,1.127,1.127,0,0,0,.555-.659.9.9,0,0,0-.111-.77,1.129,1.129,0,0,0-1.442-.44A9.214,9.214,0,0,1,277.2,48.246a8.371,8.371,0,0,1,0-11.762,6.538,6.538,0,0,1,9.208,0,4.944,4.944,0,0,1,0,6.925,3.843,3.843,0,0,1-5.325,0,2.767,2.767,0,0,1,0-3.957,2.09,2.09,0,0,1,2.885,0,1.384,1.384,0,0,1,0,1.979,1.055,1.055,0,0,0,0,1.539,1.079,1.079,0,0,0,1.553,0,3.5,3.5,0,0,0,0-5.056,4.245,4.245,0,0,0-5.991,0,4.944,4.944,0,0,0,0,6.925,6,6,0,0,0,8.433,0,6.78,6.78,0,0,0,1.885-3.628l.111-.878a7.626,7.626,0,0,0-2-5.607,8.9,8.9,0,0,0-12.316,0,10.583,10.583,0,0,0,0,14.84A10.154,10.154,0,0,0,283.192,52.863Z" transform="translate(-227.099 2.15)" fill="#fff"/>
        <path id="Path_159" data-name="Path 159" d="M316.411,51.227a8.786,8.786,0,0,0,2-5.5,10.608,10.608,0,0,0-1.665-5.607,4.736,4.736,0,0,0,2.108-2.308,5.2,5.2,0,0,0,.444-1.979,4.865,4.865,0,0,0-9.431-1.539,12.932,12.932,0,0,0-4.105-.77,12.375,12.375,0,0,0-4.106.77,4.8,4.8,0,0,0-4.549-3.188,4.714,4.714,0,0,0-4.771,4.727,4.288,4.288,0,0,0,.444,1.979A4.983,4.983,0,0,0,295,40.125a11.718,11.718,0,0,0-1.664,5.607,8.7,8.7,0,0,0,1.885,5.5c-9.874,4.837-9.652,11.762-9.652,11.982,0,2.308,2.219,4.176,4.882,4.176a2.468,2.468,0,0,0,.887-.11,12.232,12.232,0,0,0,.777,1.759,5.948,5.948,0,0,0-.555,2.417c0,3.3,3.44,5.937,6.324,7.255a8.943,8.943,0,0,0,3.551.77,4.973,4.973,0,0,0,3.218-1.1,6.754,6.754,0,0,0,.777-1.1h.443a6.393,6.393,0,0,0,1.442-.11,2.849,2.849,0,0,0,.777,1.21,4.282,4.282,0,0,0,3.218,1.1,8.942,8.942,0,0,0,3.55-.77c2.885-1.318,6.323-3.957,6.323-7.255a5.962,5.962,0,0,0-1.109-3.408c.111-.219.222-.549.332-.769,0,.11.333.11.666.11,2.663,0,4.882-1.869,4.771-4.176C325.953,62.989,326.175,56.174,316.411,51.227Zm-2-18.027a2.688,2.688,0,0,1,2.663,2.639,3.848,3.848,0,0,1-.223,1.1,2.423,2.423,0,0,1-1.442,1.319,12.369,12.369,0,0,0-3.661-3.079A2.864,2.864,0,0,1,314.414,33.2ZM301.1,36.938a.609.609,0,0,0,.554-.33,10.021,10.021,0,0,1,8.211,0,2.411,2.411,0,0,0,.555.33,10.637,10.637,0,0,1,5.658,8.9,6.573,6.573,0,0,1-1.442,4.178v-.33c0-2.2-1.553-4.287-3.772-5.716a1.49,1.49,0,0,0,.444-1.209A1.745,1.745,0,0,0,309.532,41a1.888,1.888,0,0,0-1.775,1.65,7.6,7.6,0,0,0-2.219-.22,8.5,8.5,0,0,0-2.33.33,1.726,1.726,0,0,0-1.776-1.65,1.745,1.745,0,0,0-1.775,1.759,2.3,2.3,0,0,0,.443,1.21,6.81,6.81,0,0,0-3.661,5.605v.33A6.579,6.579,0,0,1,295,45.841,11.763,11.763,0,0,1,301.1,36.938Zm11.539,12.751c0,2.528-3.551,3.738-6.879,3.738s-6.768-1.1-6.768-3.738c0-2.309,3-5.056,6.768-5.056S312.639,47.38,312.639,49.689ZM294.665,36.938a3.229,3.229,0,0,1-.223-1.1,2.688,2.688,0,0,1,2.663-2.639,2.625,2.625,0,0,1,2.552,1.979,11.926,11.926,0,0,0-3.55,3.079A2.159,2.159,0,0,1,294.665,36.938ZM290.338,65.3a2.488,2.488,0,0,1-2.663-2.088c0-.22-.111-6.156,9.1-10.334l1,.66A13.48,13.48,0,0,0,293,63.209C292.89,64.528,291.891,65.3,290.338,65.3Zm12.537,11.541c-.887.88-3.329.44-4.327,0-2.551-1.1-5.1-3.187-5.1-5.275A3.582,3.582,0,0,1,297,67.935c2.108,0,4.882,1.869,5.769,5.057C303.43,74.971,303.43,76.289,302.875,76.839Zm4.438-4.507a13.361,13.361,0,0,0-.555,2.748h-1.33a7.963,7.963,0,0,0-.555-2.748c-1.221-4.287-4.993-6.595-7.878-6.595a5.935,5.935,0,0,0-3.661,1.318c-.111-.219-.111-.439-.222-.659a4.7,4.7,0,0,0,2-3.3c0-.11.111-5.826,4.771-8.683a15.869,15.869,0,0,0,5.769.989,15.269,15.269,0,0,0,5.659-.989c4.549,2.857,4.77,8.683,4.77,8.794a4.451,4.451,0,0,0,1.776,3.187v.11a6.25,6.25,0,0,0-2.885-.769C312.306,65.847,308.534,68.156,307.313,72.332Zm6.324,4.507c-1,.44-3.44.99-4.327,0-.555-.549-.555-1.868,0-3.846.887-3.079,3.772-5.057,5.769-5.057a3.582,3.582,0,0,1,3.55,3.628C318.741,73.652,316.19,75.74,313.638,76.839Zm10.1-13.629a2.488,2.488,0,0,1-2.663,2.088,2.407,2.407,0,0,1-2.662-2.088c0-.22-.112-6.046-4.66-9.673l1-.66C323.845,57.053,323.734,62.879,323.734,63.209Z" transform="translate(-225.703 2.027)" fill="#fff"/>
        <path id="Path_160" data-name="Path 160" d="M333.1,39.511a8.525,8.525,0,0,0-7.433-1.319,7.735,7.735,0,0,0-5.436,4.507,1.206,1.206,0,0,0,0,.88,1.128,1.128,0,0,0,.666.549c.111,0,.222.11.443.11a.673.673,0,0,0,.444-.11,1.127,1.127,0,0,0,.555-.659,5.845,5.845,0,0,1,3.994-3.188,6.01,6.01,0,0,1,6.657,9.234,4.584,4.584,0,0,1-6.324.88A3.3,3.3,0,0,1,326,45.777a2.373,2.373,0,0,1,3.439-.44,1.725,1.725,0,0,1,.333,2.418,1.118,1.118,0,0,1-1.664.219,1.182,1.182,0,0,0-1.554.22,1.155,1.155,0,0,0,.223,1.539,3.392,3.392,0,0,0,4.77-.66,4.032,4.032,0,0,0,.777-2.968,3.667,3.667,0,0,0-1.553-2.638,4.9,4.9,0,0,0-6.657.88,5.567,5.567,0,0,0,1.11,7.8,6.549,6.549,0,0,0,4.1,1.318,2.183,2.183,0,0,0,.887-.11,6.455,6.455,0,0,0,4.439-2.638A7.983,7.983,0,0,0,333.1,39.511Z" transform="translate(-221.975 2.753)" fill="#fff"/>
        <path id="Path_161" data-name="Path 161" d="M354.863,142.791,342.879,129.71A12.388,12.388,0,0,0,335,126.193l-4.77-.549a13.542,13.542,0,0,1-10.651-10.882,26.983,26.983,0,0,1-.555-4.727c-.222-3.077.666-7.695,2.885-10.442,7.544-9.673,9.986-17.257,8.654-26.162l-.332-1.979a17.4,17.4,0,0,1-4.439-12.421v-.88a2.973,2.973,0,0,1,.666-1.869,2.756,2.756,0,0,1,1.776-.88h.111a2.732,2.732,0,0,1,1.775.66,15.416,15.416,0,0,1,9.32-3.517,13.983,13.983,0,0,1,4.66.878c6.435,2.639,10.1,10.113,9.541,19.456-.111,2.088-.332,4.4-.666,6.706v.11c-.555,5.167-1.221,11.1-.555,15.939.223,1.318.555,2.2,1.11,2.418.111,0,.332.11.443.11a7.421,7.421,0,0,0,3.662-1.65,1.364,1.364,0,0,1,1-.329,1.449,1.449,0,0,1,1.553,1.429c0,1.648-1.887,7.144-6.1,10a9.85,9.85,0,0,1-5.437,1.65,10.314,10.314,0,0,1-3.994-.77c-7.1-2.748-7.1-13.081-7.1-22.094A59.329,59.329,0,0,0,337,75.849c-.555-2.308-1.332-3.957-2.219-4.726a2.949,2.949,0,0,1-.555.659.944.944,0,0,1-.555.33c0,.219.111.329.111.549,1.442,9.783-1.33,18.247-9.319,28.579-1.664,2.088-2.33,5.826-2.219,8.354a16.4,16.4,0,0,0,.222,2.2,11.857,11.857,0,0,0,8.431,10.112l4.216.551a16.088,16.088,0,0,1,10.207,4.507l14.424,15.5h-4.881ZM334,67.934a3.088,3.088,0,0,1,1.442.33c2.219.88,3.661,3.3,4.549,7.035.666,2.968.666,6.925.666,11.1,0,8.135,0,17.367,5.1,19.456a9.542,9.542,0,0,0,2.885.549,6.957,6.957,0,0,0,3.772-1.21,11.907,11.907,0,0,0,3.661-4.4,6.314,6.314,0,0,1-2,.33,3.568,3.568,0,0,1-1.554-.33c-1.664-.659-2.662-2.2-3-4.726-.666-5.167,0-11.212.555-16.6.222-2.309.555-4.727.666-6.706.444-7.914-2.552-14.4-7.767-16.489a9.54,9.54,0,0,0-3.44-.659,12.962,12.962,0,0,0-8.542,3.738A11.352,11.352,0,0,0,334,67.934Z" transform="translate(-222.099 4.337)" fill="#fff"/>
        <path id="Path_162" data-name="Path 162" d="M266.539,128.194l.555-.659c1.776-1.869,4.327-4.616,7.878-5.716,2.774-.878,7.1-.878,10.984-.989a37.4,37.4,0,0,0,5.437-.219c2.551-.33,3-1.979,3.106-2.418.666-3.738.333-4.287-.332-4.946a4.75,4.75,0,0,0-3.107-.88c-1,0-2.219.11-3.328.22l-.777.219a23.713,23.713,0,0,1-2.885.219h-.888c-7.433,0-7.878-5.275-8.21-9.013a37.229,37.229,0,0,0-.666-5.5c-.332-1.21-2.663-2.418-3.994-3.079a2.412,2.412,0,0,1-.555-.329l-.111-.11c-1.221-.77-3-1.979-2.885-4.508a7.282,7.282,0,0,1,2.219-3.846l.443-.44c1.887-1.979,5.216-5.716,5.216-9.234,0-.989-.112-2.418-.223-3.628,0-.44-.111-.769-.111-.989,0-.549-.111-1.1-.111-1.648V69.057a1.522,1.522,0,0,1,.555-1.1,2.033,2.033,0,0,1,1.22-.329h.223a1.543,1.543,0,0,1,1.109.549,1.938,1.938,0,0,1,.444,1.1V70.6a6.221,6.221,0,0,0,.111,1.429c0,.329.111,1.1.111,1.1.111,1.429.222,2.858.222,4.067,0,4.727-3.994,9.014-6.1,11.322l-.555.22c-.443.44-1.332,1.429-1.332,1.758,0,.77.223.989,1.332,1.759l.223.11c2,1.1,5.1,2.748,5.658,5.057l.444,2.308v.22h.332c.112,0,.333-.11.444-.11.222-.111.555-.111.777-.22l.223-.11.111-.11.222-.111c.222-.11.555-.329.777-.44.111-.11.222-.11.333-.219l.222-.11.666-.66a1.577,1.577,0,0,0,.222-.329v-.11a1.914,1.914,0,0,1,1.553-.88,1.614,1.614,0,0,1,.777.219,1.684,1.684,0,0,1,.777,1.1,1.514,1.514,0,0,1-.222,1.21,9.6,9.6,0,0,1-6.99,4.067c.444,4.287.666,6.375,4.771,6.375h.777a23.745,23.745,0,0,0,2.663-.219c1.442-.11,3-.33,4.438-.33,2.663,0,4.549.549,5.769,1.759,1.553,1.429,2,3.408,1.553,7.035a6.937,6.937,0,0,1-6.214,6.156h-.111a37.319,37.319,0,0,1-3.772.11c-4.327.11-10.318.33-12.426,1.1a19.925,19.925,0,0,0-6.1,4.727l-.222.219Z" transform="translate(-227.754 5.963)" fill="#fff"/>
      </g>
    </g>
  </g>
</svg>
