<svg xmlns="http://www.w3.org/2000/svg" xmlns:xlink="http://www.w3.org/1999/xlink" width="173.092" height="174.2" viewBox="0 0 173.092 174.2">
  <defs>
    <filter id="Path_163" x="0" y="0" width="173.092" height="174.2" filterUnits="userSpaceOnUse">
      <feOffset dy="3" input="SourceAlpha"/>
      <feGaussianBlur stdDeviation="3" result="blur"/>
      <feFlood flood-opacity="0.161"/>
      <feComposite operator="in" in2="blur"/>
      <feComposite in="SourceGraphic"/>
    </filter>
    <linearGradient id="linear-gradient" x1="-0.295" y1="1.495" x2="0.515" y2="0.053" gradientUnits="objectBoundingBox">
      <stop offset="0" stop-color="#9dd1c8"/>
      <stop offset="0.288" stop-color="#9acec7"/>
      <stop offset="0.528" stop-color="#8fc4c4"/>
      <stop offset="0.749" stop-color="#7eb5bf"/>
      <stop offset="0.938" stop-color="#69a1b8"/>
    </linearGradient>
  </defs>
  <g id="Group_167" data-name="Group 167" transform="translate(7.892 6)">
    <g transform="matrix(1, 0, 0, 1, -7.89, -6)" filter="url(#Path_163)">
      <path id="Path_163-2" data-name="Path 163" d="M203.856,79.1C203.856,36,238.6,1,281.4,1s77.546,35,77.546,78.1v78.1H281.4C238.6,157.306,203.856,122.311,203.856,79.1Z" transform="translate(-194.86 5)" fill="#fff"/>
    </g>
    <g id="Group_174" data-name="Group 174" transform="translate(0 0)">
      <g id="Group_174-2" data-name="Group 174" transform="translate(0 0)">
        <path id="Path_230" data-name="Path 230" d="M5.652,79.268a78.1,78.1,0,1,1,156.2,0v78.1h-78.1A78,78,0,0,1,5.652,79.268Z" transform="translate(-5.652 -1.168)" fill="#fff"/>
        <path id="Path_231" data-name="Path 231" d="M15,77.976a67.539,67.539,0,0,1,135.077,0v67.538H82.542A67.452,67.452,0,0,1,15,77.976Z" transform="translate(-4.644 -0.169)" fill="url(#linear-gradient)"/>
      </g>
      <path id="Path_232" data-name="Path 232" d="M73.721,39.641c-6.96.579-10.673,2.32-13.921,4.641-4.061,2.9-9.283,7.541-10.443,16.823-.928,7.424.58,8.7,0,13.342-1.354,3.867-5.222,8.7-6.381,9.862-2.209,2.21-2.9,4.06-1.16,5.8s5.8,2.9,6.961,5.8a8.485,8.485,0,0,1,.579,3.481m-8.7,30.164c3.481-3.48,5.854-5.642,11.023-6.381A111.906,111.906,0,0,1,65.6,122.6c4.061,0,5.8-4.061,5.8-6.381s0-4.834-2.9-5.8c-4.641-1.546-11.6,1.74-15.662-.58-2.643-1.51-3.354-6.884-3.482-10.441m0,0c4.7,0,6.382-1.161,7.542-2.321M98.666,41.381c2.321,1.16,7.542,4.06,10.442,7.541,3.195,3.834,6.961,8.7,7.541,17.4a36.422,36.422,0,0,1-4.06,20.3c-2.9,5.8-5.221,8.121-6.961,11.023s-2.32,6.96-2.32,9.862m0,0a16.276,16.276,0,0,0,2.9,9.281,15.3,15.3,0,0,0,8.7,5.8c2.9.579,8.573-.708,13.922,4.641,4.061,4.06,11.023,12.182,15.083,16.243m-40.606-35.966H90.545c-.579,0-5.8-12.763-5.8-12.763-.58-.579,2.9,1.045,5.221.58,2.9-.58,3.65-3.41,4.06-4.641.58-1.74,1.16-4.061,1.74-6.381a5.9,5.9,0,0,0-3.481-6.381,4.693,4.693,0,0,0-6.381,2.32c-.928,1.857-1.74,5.221-2.321,5.221,0,0-2.9,0-2.9-.58s2.121-9.546,3.481-15.662" transform="translate(-1.879 2.979)" fill="none" stroke="#fff" stroke-linecap="round" stroke-width="3"/>
      <path id="Path_233" data-name="Path 233" d="M60.5,72.964a10.973,10.973,0,0,1-4.973-4.933L52.871,69.4a13.5,13.5,0,0,0,6,6.149c3.392,1.7,5.846,1.482,8.823,1.482V74.011C65.474,74.011,63.007,74.369,60.5,72.964Z" transform="translate(-0.562 6.04)" fill="#fff"/>
      <path id="Path_234" data-name="Path 234" d="M115.642,52.674l-1.162-2.011-2.029,1.163,1.162,1.991Z" transform="translate(5.861 4.168)" fill="#fff"/>
      <path id="Path_235" data-name="Path 235" d="M116.421,36.26,114.81,34.5l-8.592,8.445,1.76,1.713Z" transform="translate(5.189 2.425)" fill="#fff"/>
      <path id="Path_236" data-name="Path 236" d="M105.427,32.457l-1.186-2.039L102.2,31.623l1.162,2.031Z" transform="translate(4.756 1.985)" fill="#fff"/>
      <path id="Path_237" data-name="Path 237" d="M64.81,28.629,63.623,26.59l-2.037,1.2,1.163,2.032Z" transform="translate(0.378 1.573)" fill="#fff"/>
      <path id="Path_238" data-name="Path 238" d="M42.461,33.411l-1.54-1.693-1.753,1.539,1.553,1.756Z" transform="translate(-2.039 2.125)" fill="#fff"/>
      <path id="Path_239" data-name="Path 239" d="M37.371,64l-1.713-1.584-1.591,1.759,1.713,1.57Z" transform="translate(-2.589 5.434)" fill="#fff"/>
      <path id="Path_240" data-name="Path 240" d="M42.059,52.445l-8.414-8.464-1.676,1.686L40.4,54.089Z" transform="translate(-2.815 3.447)" fill="#fff"/>
      <path id="Path_241" data-name="Path 241" d="M59.568,37.614l-7.526-9.258-1.863,1.487L57.742,39.1Z" transform="translate(-0.852 1.763)" fill="#fff"/>
      <path id="Path_242" data-name="Path 242" d="M93.585,51.984A12.035,12.035,0,1,1,81.551,40.02,12,12,0,0,1,93.585,51.984Zm-5.851,7.54a9.731,9.731,0,0,1-13.6-13.762Zm1.74-1.794-13.649-13.6a9.732,9.732,0,0,1,13.649,13.6Z" transform="translate(1.233 3.02)" fill="#fff"/>
    </g>
  </g>
</svg>
