<svg xmlns="http://www.w3.org/2000/svg" xmlns:xlink="http://www.w3.org/1999/xlink" width="1920" height="100" viewBox="0 0 1920 100">
  <defs>
    <clipPath id="clip-path">
      <rect id="Rectangle_85" data-name="Rectangle 85" width="1920" height="100" fill="#e6f3f0"/>
    </clipPath>
  </defs>
  <g id="Group_276" data-name="Group 276" transform="translate(0 -1057)">
    <rect id="Rectangle_84" data-name="Rectangle 84" width="1920" height="100" transform="translate(0 1057)" fill="#e6f3f0"/>
    <g id="Mask_Group_6" data-name="Mask Group 6" transform="translate(0 1057)" clip-path="url(#clip-path)">
      <g id="Group_275" data-name="Group 275" transform="translate(-175.772 -61.572)">
        <g id="Group_274" data-name="Group 274" transform="translate(0 0)">
          <path id="Path_271" data-name="Path 271" d="M987.327,597.968l161.046-111.837L987.327,374.293l-10.339,7.18,150.707,104.658L976.988,590.788l10.339,7.18Z" transform="translate(-976.988 -374.293)" fill="#9dd4ca"/>
          <path id="Path_272" data-name="Path 272" d="M934.151,597.968,1095.2,486.131,934.151,374.293l-10.339,7.18,150.707,104.658L923.812,590.788l10.339,7.18Z" transform="translate(-871.978 -374.293)" fill="#9dd4ca"/>
          <path id="Path_273" data-name="Path 273" d="M880.976,597.968l161.045-111.837L880.976,374.293l-10.339,7.18,150.706,104.658L870.637,590.788l10.339,7.18Z" transform="translate(-766.969 -374.293)" fill="#9dd4ca"/>
          <path id="Path_274" data-name="Path 274" d="M827.8,597.968,988.846,486.131,827.8,374.293l-10.339,7.18L968.168,486.131,817.462,590.788l10.339,7.18Z" transform="translate(-661.959 -374.293)" fill="#9dd4ca"/>
          <path id="Path_275" data-name="Path 275" d="M774.625,597.968,935.671,486.131,774.625,374.293l-10.339,7.18L914.993,486.131,764.286,590.788l10.339,7.18Z" transform="translate(-556.95 -374.293)" fill="#9dd4ca"/>
        </g>
      </g>
    </g>
  </g>
</svg>
