<?xml version="1.0" encoding="UTF-8"?>
<svg xmlns="http://www.w3.org/2000/svg" xmlns:xlink="http://www.w3.org/1999/xlink" width="1067px" height="80px" viewBox="0 0 1066 80" version="1.1">
<g id="surface1">
<rect x="0" y="0" width="1066" height="80" style="fill:rgb(90.196078%,95.294118%,94.117647%);fill-opacity:1;stroke:none;"/>
<path style=" stroke:none;fill-rule:nonzero;fill:rgb(61.568627%,83.137255%,79.215686%);fill-opacity:1;" d="M -63.070312 129.683594 L 26.34375 40.210938 L -63.070312 -49.257812 L -68.8125 -43.511719 L 14.863281 40.210938 L -68.8125 123.9375 Z M -63.070312 129.683594 "/>
<path style=" stroke:none;fill-rule:nonzero;fill:rgb(61.568627%,83.137255%,79.215686%);fill-opacity:1;" d="M -34.292969 129.683594 L 55.121094 40.210938 L -34.292969 -49.257812 L -40.03125 -43.511719 L 43.640625 40.210938 L -40.03125 123.9375 Z M -34.292969 129.683594 "/>
<path style=" stroke:none;fill-rule:nonzero;fill:rgb(61.568627%,83.137255%,79.215686%);fill-opacity:1;" d="M -5.515625 129.683594 L 83.898438 40.210938 L -5.515625 -49.257812 L -11.253906 -43.511719 L 72.417969 40.210938 L -11.253906 123.9375 Z M -5.515625 129.683594 "/>
<path style=" stroke:none;fill-rule:nonzero;fill:rgb(61.568627%,83.137255%,79.215686%);fill-opacity:1;" d="M 23.265625 129.683594 L 112.679688 40.210938 L 23.265625 -49.257812 L 17.523438 -43.511719 L 101.199219 40.210938 L 17.523438 123.9375 Z M 23.265625 129.683594 "/>
</g>
</svg>
