<?xml version="1.0" encoding="UTF-8"?>
<svg xmlns="http://www.w3.org/2000/svg" xmlns:xlink="http://www.w3.org/1999/xlink" width="1333px" height="100px" viewBox="0 0 1333 100" version="1.1">
<g id="surface1">
<rect x="0" y="0" width="1333" height="100" style="fill:rgb(90.196078%,95.294118%,94.117647%);fill-opacity:1;stroke:none;"/>
<path style=" stroke:none;fill-rule:nonzero;fill:rgb(61.568627%,83.137255%,79.215686%);fill-opacity:1;" d="M -78.867188 162.101562 L 32.941406 50.265625 L -78.867188 -61.570312 L -86.046875 -54.390625 L 18.585938 50.265625 L -86.046875 154.921875 Z M -78.867188 162.101562 "/>
<path style=" stroke:none;fill-rule:nonzero;fill:rgb(61.568627%,83.137255%,79.215686%);fill-opacity:1;" d="M -42.882812 162.101562 L 68.925781 50.265625 L -42.882812 -61.570312 L -50.058594 -54.390625 L 54.570312 50.265625 L -50.058594 154.921875 Z M -42.882812 162.101562 "/>
<path style=" stroke:none;fill-rule:nonzero;fill:rgb(61.568627%,83.137255%,79.215686%);fill-opacity:1;" d="M -6.894531 162.101562 L 104.914062 50.265625 L -6.894531 -61.570312 L -14.074219 -54.390625 L 90.558594 50.265625 L -14.070312 154.921875 Z M -6.894531 162.101562 "/>
<path style=" stroke:none;fill-rule:nonzero;fill:rgb(61.568627%,83.137255%,79.215686%);fill-opacity:1;" d="M 29.09375 162.101562 L 140.902344 50.265625 L 29.09375 -61.570312 L 21.914062 -54.390625 L 126.546875 50.265625 L 21.914062 154.921875 Z M 29.09375 162.101562 "/>
</g>
</svg>
