<svg xmlns="http://www.w3.org/2000/svg" xmlns:xlink="http://www.w3.org/1999/xlink" width="138.872" height="157.88" viewBox="0 0 138.872 157.88">
  <defs>
    <clipPath id="clip-path">
      <path id="Path_32" data-name="Path 32" d="M964.126,409.73a36.443,36.443,0,0,0,5.172,3.421,36.626,36.626,0,0,0,5.172-3.421Zm-11.035-14.335h8.94l-11.79-11.789a36.537,36.537,0,0,0,2.85,11.789m23.275,0H962.031l-5.809,5.809a36.708,36.708,0,0,0,4.619,5.642c.386.386.791.74,1.19,1.105V395.395l13.492,13.492c.286-.242.563-.5.843-.75V395.395h9.14a36.32,36.32,0,0,0,1.39-3.806L976.366,381.06ZM962.031,381.06v14.335l14.335-14.335Zm14.335,0h12.091a36.658,36.658,0,0,0-1.536-10.555Zm-23.32-14.335h8.984l-5.851-5.851a36.282,36.282,0,0,0-3.133,5.851m23.32,0H962.031l-11.8,11.8c-.057.845-.094,1.691-.093,2.538h11.891V366.724l14.335,14.335V366.724h9.185a36.422,36.422,0,0,0-7.795-11.554c-.451-.451-.922-.87-1.39-1.291ZM964,352.389q-1.007.8-1.967,1.677v12.659l13.549-13.55c-.321-.273-.652-.526-.98-.785Z" transform="translate(-950.14 -352.389)" fill="none"/>
    </clipPath>
    <linearGradient id="linear-gradient" x1="-9.434" y1="4.557" x2="-9.424" y2="4.557" gradientUnits="objectBoundingBox">
      <stop offset="0" stop-color="#9dd1c8"/>
      <stop offset="0.288" stop-color="#99cdc6"/>
      <stop offset="0.528" stop-color="#8fc4c3"/>
      <stop offset="0.75" stop-color="#7eb4be"/>
      <stop offset="0.938" stop-color="#69a1b8"/>
      <stop offset="1" stop-color="#69a1b8"/>
    </linearGradient>
  </defs>
  <g id="Group_6" data-name="Group 6" transform="translate(-777.524 -331.574)">
    <path id="Path_18" data-name="Path 18" d="M883.987,610.523a6.371,6.371,0,0,1-5.644,3.4H875.6a.232.232,0,0,1-.207-.249v-.913c0-.166.083-.249.207-.249h2.7a4.936,4.936,0,0,0,4.979-5.063V596.081c0-.125.04-.207.207-.207h1.037c.165,0,.208.083.208.166v11.412a4.952,4.952,0,0,0,4.939,5.063c.123,0,.207.083.207.249v.913a.234.234,0,0,1-.207.249,6.437,6.437,0,0,1-5.687-3.4m-1.244-21.372c0-.165.125-.249.29-.249h1.909a.221.221,0,0,1,.25.249v1.909c0,.166-.085.291-.25.291h-1.909a.284.284,0,0,1-.29-.291Z" transform="translate(-60.63 -159.41)" fill="#575858"/>
    <path id="Path_19" data-name="Path 19" d="M919.875,621.872a6.371,6.371,0,0,1-5.644,3.4h-2.739a.232.232,0,0,1-.207-.249v-.913c0-.166.083-.249.207-.249h2.7a4.936,4.936,0,0,0,4.979-5.063v-11.37c0-.125.04-.207.207-.207h1.037c.165,0,.207.083.207.166V618.8a4.952,4.952,0,0,0,4.94,5.063c.122,0,.207.083.207.249v.913a.234.234,0,0,1-.207.249,6.437,6.437,0,0,1-5.687-3.4m-4.607,7.387c0-.166.125-.249.292-.249h1.909a.219.219,0,0,1,.247.249v1.909c0,.166-.082.291-.247.291H915.56a.284.284,0,0,1-.292-.291Zm4.69,0c0-.166.125-.249.292-.249h1.909a.219.219,0,0,1,.247.249v1.909c0,.166-.082.291-.247.291h-1.909a.284.284,0,0,1-.292-.291Z" transform="translate(-82.862 -170.76)" fill="#575858"/>
    <path id="Path_20" data-name="Path 20" d="M1041.03,557.766l.707-.207c.165-.041.373,0,.415.166a13.224,13.224,0,0,1,.5,2.49,2.319,2.319,0,0,1-2.406,2.532,2.193,2.193,0,0,1-1.619-.664,2.251,2.251,0,0,1-1.992,1.287c-.954,0-1.536-.54-1.909-1.619l-.457-1.909a.236.236,0,0,1,.165-.29l.831-.166c.165-.041.207.041.248.208l.457,1.784a.879.879,0,0,0,.954.706,1.048,1.048,0,0,0,1.037-1.121,5.787,5.787,0,0,0-.125-1.2c-.04-.248,0-.291.085-.332l.747-.166c.207-.041.248,0,.29.166l.25,1.162a1.075,1.075,0,0,0,1.119.831c.7,0,1.037-.415,1.037-1.369a9.785,9.785,0,0,0-.5-1.951.261.261,0,0,1,.165-.332" transform="translate(-159.04 -139.984)" fill="#575858"/>
    <path id="Path_21" data-name="Path 21" d="M1041.289,600.389a5.56,5.56,0,0,1-5.519,3.32h-13.03a.46.46,0,0,1-.457-.456v-.54a.426.426,0,0,1,.457-.415h12.987a4.3,4.3,0,0,0,4.649-4.607v-8.715l-13.529-2.448c-.125,0-.332-.207-.374-.374l-.622-2.282a.543.543,0,0,1,.167-.538l15.353-10.873a.2.2,0,0,1,.332.166v1.162a.306.306,0,0,1-.165.332l-14.193,10,.292,1.121,13.776,2.49a.426.426,0,0,1,.332.456v8.839a4.947,4.947,0,0,0,5.062,5.228.427.427,0,0,1,.458.416v.581a.461.461,0,0,1-.458.456,6.086,6.086,0,0,1-5.519-3.32" transform="translate(-151.623 -149.194)" fill="#575858"/>
    <path id="Path_22" data-name="Path 22" d="M1085.767,623.328a.2.2,0,0,1,.207-.207h17.469c-1.119-.831-1.949-2.282-1.949-4.773v-6.016a4.879,4.879,0,0,0-4.9-4.9h-1.411a4.768,4.768,0,0,0-3.443,1.411.415.415,0,0,1-.622,0l-.417-.373a.452.452,0,0,1,0-.623,6.268,6.268,0,0,1,4.482-1.826h1.411a6.313,6.313,0,0,1,6.349,6.309v6.016c0,2.2,1.2,4.773,4.15,4.773a.267.267,0,0,1,.25.248v.955a.27.27,0,0,1-.25.207h-21.122a.2.2,0,0,1-.207-.207Z" transform="translate(-190.95 -170.016)" fill="#575858"/>
    <path id="Path_23" data-name="Path 23" d="M947.844,651.2a.22.22,0,0,1,.25-.248h29.2a.22.22,0,0,1,.25.248v.913a.22.22,0,0,1-.25.248h-29.2a.22.22,0,0,1-.25-.248Z" transform="translate(-105.51 -197.851)" fill="#575858"/>
    <path id="Path_24" data-name="Path 24" d="M816.417,623.865a.239.239,0,0,1,.25.249v.913a.269.269,0,0,1-.25.249h-8.062a.454.454,0,0,1-.415-.456V608.635h-5.6a5.477,5.477,0,0,0-5.312,5.229v13.943a6.456,6.456,0,0,1-6.391,6.432h-5.519a7.539,7.539,0,0,1-7.593-7.968,14.962,14.962,0,0,1,2.656-7.677.41.41,0,0,1,.622-.083l.415.25a.364.364,0,0,1,.125.581c-.125.207-2.366,3.485-2.366,6.806,0,4.979,3.653,6.6,6.141,6.6h5.519a4.923,4.923,0,0,0,4.94-4.938V613.987a6.818,6.818,0,0,1,6.763-6.763h6.556a.46.46,0,0,1,.457.456v16.185Z" transform="translate(0 -170.76)" fill="#575858"/>
    <path id="Path_25" data-name="Path 25" d="M867.669,707.286v-8.31a.175.175,0,0,1,.162-.164h.649a.176.176,0,0,1,.164.164v17.813a.175.175,0,0,1-.164.162h-.649a.173.173,0,0,1-.162-.162v-8.554h-7.905v8.554a.174.174,0,0,1-.162.162h-.65a.173.173,0,0,1-.162-.162V698.976a.175.175,0,0,1,.162-.164h.65a.176.176,0,0,1,.162.164v8.31Z" transform="translate(-50.342 -227.497)" fill="#575858"/>
    <path id="Path_26" data-name="Path 26" d="M910.889,716.761a.147.147,0,0,1-.136.19H910.1a.2.2,0,0,1-.217-.162l-1.842-5.848H901.6l-1.842,5.848a.2.2,0,0,1-.215.162h-.65a.146.146,0,0,1-.135-.19l5.657-17.786a.212.212,0,0,1,.216-.164h.379a.212.212,0,0,1,.217.164Zm-3.141-6.768-2.924-9.259-2.924,9.259Z" transform="translate(-75.101 -227.497)" fill="#575858"/>
    <path id="Path_27" data-name="Path 27" d="M955.313,716.951a.252.252,0,0,1-.244-.135l-5.739-9.341-3.059,4.17v5.143a.175.175,0,0,1-.164.162h-.649a.173.173,0,0,1-.162-.162V698.976a.175.175,0,0,1,.162-.164h.649a.176.176,0,0,1,.164.164v11.1l8.148-11.127a.254.254,0,0,1,.271-.136h.785a.115.115,0,0,1,.08.189l-5.6,7.635,6.228,10.125a.121.121,0,0,1-.108.19Z" transform="translate(-103.931 -227.497)" fill="#575858"/>
    <path id="Path_28" data-name="Path 28" d="M998.282,716.951a.253.253,0,0,1-.244-.135l-5.739-9.341-3.059,4.17v5.143a.174.174,0,0,1-.164.162h-.649a.173.173,0,0,1-.162-.162V698.976a.175.175,0,0,1,.162-.164h.649a.176.176,0,0,1,.164.164v11.1l8.148-11.127a.254.254,0,0,1,.271-.136h.785a.115.115,0,0,1,.08.189l-5.6,7.635,6.227,10.125a.121.121,0,0,1-.108.19Z" transform="translate(-130.55 -227.497)" fill="#575858"/>
    <path id="Path_29" data-name="Path 29" d="M1031.749,716.951a.174.174,0,0,1-.162-.162v-.623a.176.176,0,0,1,.162-.162h3.926V699.761h-3.926a.176.176,0,0,1-.162-.164v-.622a.176.176,0,0,1,.162-.164h8.825a.175.175,0,0,1,.162.164v.622a.175.175,0,0,1-.162.164h-3.925V716h3.925a.175.175,0,0,1,.162.162v.623a.173.173,0,0,1-.162.162Z" transform="translate(-157.387 -227.497)" fill="#575858"/>
    <path id="Path_30" data-name="Path 30" d="M1083.322,698.812a.176.176,0,0,1,.164.164v17.813a.175.175,0,0,1-.164.162h-.649a.229.229,0,0,1-.244-.135l-7.823-15.973v15.946a.175.175,0,0,1-.163.162h-.65a.173.173,0,0,1-.162-.162V698.976a.175.175,0,0,1,.162-.164h.65a.227.227,0,0,1,.243.137l7.825,15.973V698.976a.175.175,0,0,1,.162-.164Z" transform="translate(-183.432 -227.497)" fill="#575858"/>
    <path id="Path_31" data-name="Path 31" d="M1117.686,716.951a.174.174,0,0,1-.162-.162v-.623a.176.176,0,0,1,.162-.162h3.926V699.761h-3.926a.176.176,0,0,1-.162-.164v-.622a.176.176,0,0,1,.162-.164h8.825a.174.174,0,0,1,.162.164v.622a.175.175,0,0,1-.162.164h-3.925V716h3.925a.174.174,0,0,1,.162.162v.623a.173.173,0,0,1-.162.162Z" transform="translate(-210.623 -227.497)" fill="#575858"/>
    <g id="Group_5" data-name="Group 5" transform="translate(843.208 339.495)">
      <g id="Group_4" data-name="Group 4" transform="translate(0)" clip-path="url(#clip-path)">
        <rect id="Rectangle_2" data-name="Rectangle 2" width="38.323" height="60.762" transform="translate(-0.001 0)" fill="url(#linear-gradient)"/>
      </g>
    </g>
    <path id="Path_33" data-name="Path 33" d="M904.251,342.276a36.526,36.526,0,0,1,8.458-6.306,36.536,36.536,0,0,0-16.83-4.383v-.013H858.79v37.09h.013a36.529,36.529,0,0,0,53.905,31.593,36.545,36.545,0,0,1-8.457-57.981" transform="translate(-50.343 0)" fill="#9dd4ca"/>
    <path id="Path_34" data-name="Path 34" d="M1054.392,367.572a36.529,36.529,0,0,0-53.905-31.593,36.544,36.544,0,0,1,0,64.287,36.529,36.529,0,0,0,16.83,4.383v.013h37.09V367.572Z" transform="translate(-138.12 -0.008)" fill="#68a2b9"/>
  </g>
</svg>
