<svg xmlns="http://www.w3.org/2000/svg" xmlns:xlink="http://www.w3.org/1999/xlink" width="173.092" height="174.2" viewBox="0 0 173.092 174.2">
  <defs>
    <filter id="Path_178" x="0" y="0" width="173.092" height="174.2" filterUnits="userSpaceOnUse">
      <feOffset dy="3" input="SourceAlpha"/>
      <feGaussianBlur stdDeviation="3" result="blur"/>
      <feFlood flood-opacity="0.161"/>
      <feComposite operator="in" in2="blur"/>
      <feComposite in="SourceGraphic"/>
    </filter>
    <linearGradient id="linear-gradient" x1="-0.295" y1="1.235" x2="0.515" y2="-0.207" gradientUnits="objectBoundingBox">
      <stop offset="0" stop-color="#9dd1c8"/>
      <stop offset="0.288" stop-color="#9acec7"/>
      <stop offset="0.528" stop-color="#8fc4c4"/>
      <stop offset="0.749" stop-color="#7eb5bf"/>
      <stop offset="0.938" stop-color="#69a1b8"/>
    </linearGradient>
  </defs>
  <g id="Group_165" data-name="Group 165" transform="translate(7.892 6)">
    <g transform="matrix(1, 0, 0, 1, -7.89, -6)" filter="url(#Path_178)">
      <path id="Path_178-2" data-name="Path 178" d="M203.856,79.1C203.856,36,238.6,1,281.4,1s77.546,35,77.546,78.1v78.1H281.4C238.6,157.306,203.856,122.311,203.856,79.1Z" transform="translate(-194.86 5)" fill="#fff"/>
    </g>
    <g id="Group_163" data-name="Group 163" transform="translate(0)">
      <g id="Group_162" data-name="Group 162" transform="translate(0 0)">
        <g id="Group_161" data-name="Group 161" transform="translate(0 0)">
          <path id="Path_164" data-name="Path 164" d="M5.516,80.1a78.1,78.1,0,0,1,156.2,0v78.1h-78.1A78,78,0,0,1,5.516,80.1Z" transform="translate(-5.516 -1.996)" fill="#fff"/>
          <path id="Path_165" data-name="Path 165" d="M14.871,78.8a67.539,67.539,0,0,1,135.077,0v67.539H82.41A67.453,67.453,0,0,1,14.871,78.8Z" transform="translate(-4.508 -0.997)" fill="url(#linear-gradient)"/>
        </g>
        <path id="Path_166" data-name="Path 166" d="M130.063,126.752a17.308,17.308,0,0,0-11.071-4.983l-14.579-.83a4.539,4.539,0,0,1-4.244-4.521V111.99a10.559,10.559,0,0,1,4.983-9.042A35.6,35.6,0,0,0,90.113,37.439a27.183,27.183,0,0,0-3.875-.185c-15.685,0-27.773,10.519-31.648,27.588L44.348,81.911a3.229,3.229,0,0,0-.553,2.4,3.445,3.445,0,0,0,1.292,2.121,2.277,2.277,0,0,0,.646.369,19.424,19.424,0,0,0,3.505,1.016l1.939.553a5.1,5.1,0,0,1,3.413,4.337l.092.738a26.139,26.139,0,0,0,7.012,15.5,14.118,14.118,0,0,0,3.783,2.86,8,8,0,0,0,2.583.462h1.015V116.6a4.537,4.537,0,0,1-4.244,4.521l-14.578.831a17.309,17.309,0,0,0-11.072,4.982l-1.569,1.385c.923.738,1.846,1.476,2.768,2.121l.461-.461.646-.738a13.576,13.576,0,0,1,8.95-3.968l14.579-.83A7.873,7.873,0,0,0,72.4,116.6v-5.075l.184-.092c7.1-2.583,15.408-9.873,16.331-10.611l.093-.092-2.214-2.491-.093.092c-4.89,4.337-13.84,10.8-18.453,10.8a3.08,3.08,0,0,1-1.385-.277,10.077,10.077,0,0,1-2.767-2.123A22.651,22.651,0,0,1,58,93.167l-.092-.738a8.238,8.238,0,0,0-5.721-7.1,16.747,16.747,0,0,0-2.308-.646c-.83-.185-1.753-.462-2.582-.739l-.277-.092L57.45,66.5c.092-.185.185-.277.185-.461,3.413-15.593,14.393-25.281,28.6-25.281,1.107,0,2.306.092,3.414.184a31.626,31.626,0,0,1,27.771,24.174,32.244,32.244,0,0,1-14.117,35.246,14.011,14.011,0,0,0-6.55,11.809V116.6a7.873,7.873,0,0,0,7.381,7.843l14.578.83a13.674,13.674,0,0,1,8.95,4.06l13.009,14.209H145.2Z" transform="translate(-2.056 1.805)" fill="#fff"/>
        <path id="Path_167" data-name="Path 167" d="M122.224,58.164H118.9v3.321h3.322Z" transform="translate(6.707 4.059)" fill="#fff"/>
        <path id="Path_168" data-name="Path 168" d="M122.224,77.652H118.9v3.322h3.322Z" transform="translate(6.707 6.16)" fill="#fff"/>
        <path id="Path_169" data-name="Path 169" d="M115.31,42.84h-3.322v3.321h3.322Z" transform="translate(5.962 2.407)" fill="#fff"/>
        <path id="Path_170" data-name="Path 170" d="M41.435,37.254H38.113v3.321h3.322Z" transform="translate(-2.002 1.805)" fill="#fff"/>
        <path id="Path_171" data-name="Path 171" d="M60.923,38.586H57.6v3.321h3.321Z" transform="translate(0.099 1.948)" fill="#fff"/>
        <path id="Path_172" data-name="Path 172" d="M49.849,48.414H46.527v3.321h3.322Z" transform="translate(-1.095 3.008)" fill="#fff"/>
        <path id="Path_173" data-name="Path 173" d="M91.75,80.493l4.429-6a1.6,1.6,0,0,1,1.015-.554.691.691,0,0,1,.461.092l6.643,2.676,2.4-4.891L109,72.928l-2.952,5.9a1.2,1.2,0,0,1-1.108.738.692.692,0,0,1-.461-.092L97.655,76.8,93.779,81.97Z" transform="translate(3.78 5.531)" fill="#fff"/>
        <path id="Path_174" data-name="Path 174" d="M63.6,53.421a1.273,1.273,0,0,1,.461-1.477l4.429-2.952,1.477,2.123-3.6,2.4,1.107,3.414-2.4.83Z" transform="translate(0.738 3.07)" fill="#fff"/>
        <path id="Path_175" data-name="Path 175" d="M91.649,78.178a.833.833,0,0,1-.461-.092L78.641,72.734c-.369-.092-.554-.369-.738-.738l-8.3-17.07v-.092a1.183,1.183,0,0,1,.83-1.476l7.1-2.031-.369-.646a.321.321,0,0,0-.092-.184L75.6,45.977a1.326,1.326,0,0,1,.277-1.292l1.477-1.477a1.127,1.127,0,0,1,.83-.369h7.2v2.491H78.641l-.554.553L79.194,49.3l1.2,1.107,10.8-3.044c.092,0,.184-.092.369-.092h.185l10.242,1.476-.37,2.491-9.78-1.384L82.7,52.436l.83.738.277.092H94.879a1.787,1.787,0,0,1,.831.462,1.072,1.072,0,0,1,.185.923L94.418,63.6a1.387,1.387,0,0,1-.277.647,1.188,1.188,0,0,1-.923.369,1.288,1.288,0,0,1-.83-.277l-9.412-8.4-.83.646,4.429,8.857,8.58,2.306,7.381-13.84a1.3,1.3,0,0,1,.277-.369,1.052,1.052,0,0,1,.738-.277,1.134,1.134,0,0,1,.923.462l6,7.473a1.25,1.25,0,0,1,0,1.569L103,71.719a1.281,1.281,0,0,1-.923.461H101.8L96.447,70.7l-3.6,6.827A1.577,1.577,0,0,1,91.649,78.178ZM72.366,55.388l7.75,15.223,10.981,4.8,2.86-5.351-8.581-2.308a1.053,1.053,0,0,1-.738-.646l-6-11.9a.808.808,0,0,1-.092-.646l.092-.83Zm25.189,13.1,4.059,1.107,6.275-7.565-4.152-5.167ZM92.3,61.109l.923-5.26H86.483Z" transform="translate(1.387 2.407)" fill="#fff"/>
        <path id="Path_176" data-name="Path 176" d="M70.15,73.818A13.975,13.975,0,0,1,57.694,66.16l-.092-.185,2.952-1.569.092.185a10.605,10.605,0,0,0,9.5,5.9h2.86v3.322Z" transform="translate(0.099 4.732)" fill="#fff"/>
      </g>
    </g>
  </g>
</svg>
